<?xml version="1.0" encoding="UTF-8"?>
<svg width="40px" height="26px" viewBox="0 0 40 26" version="1.1" xmlns="http://www.w3.org/2000/svg" xmlns:xlink="http://www.w3.org/1999/xlink">
    <!-- Generator: Sketch 46.2 (44496) - http://www.bohemiancoding.com/sketch -->
    <title>Group</title>
    <desc>Created with Sketch.</desc>
    <defs></defs>
    <g id="Non-profit-app" stroke="none" stroke-width="1" fill="none" fill-rule="evenodd">
        <g id="Home" transform="translate(-236.000000, -173.000000)" fill="#4A90E2">
            <g id="Choose-category" transform="translate(15.000000, 154.000000)">
                <g id="bolha-3" transform="translate(200.000000, 0.000000)">
                    <g id="Group" transform="translate(21.000000, 19.000000)">
                        <g transform="translate(7.567568, 0.000000)" id="Shape">
                            <path d="M20.7684231,19.8386759 C19.5609566,19.420176 18.255104,19.3934632 17.0476376,18.9749633 C16.6809255,18.8503038 15.9564457,18.6989315 15.8043943,18.2804316 C15.6612872,17.870836 15.6612872,17.3900063 15.6344546,16.9626021 C15.6165662,16.6242405 15.607622,16.2858789 15.607622,15.9475173 C15.607622,15.724911 16.1800506,15.2529855 16.3052693,15.0481877 C16.7882559,14.2468049 16.8329769,13.1693903 16.9224188,12.2611565 C17.7005639,12.4748586 17.79895,11.0412738 17.933113,10.6049654 C18.0314991,10.3022208 18.6307603,8.2186256 17.7005639,8.5035617 C17.9241688,8.11177457 18.0136107,7.6309449 18.0762201,7.1946365 C18.255104,6.0548921 18.3266576,4.80829667 17.9778339,3.69526503 C17.2533541,1.38015923 15.0262493,0.0801382778 12.6739257,0.00890425309 C10.2858254,-0.0712340247 7.88878087,1.06851037 6.99436127,3.37471192 C6.56503986,4.49664781 6.60081664,5.71653048 6.74392378,6.89189189 C6.80653315,7.42614708 6.89597511,8.02273203 7.16430099,8.5035617 C6.29671398,8.24533836 6.76181217,10.0796145 6.86019833,10.4001676 C7.00330546,10.8542845 7.12852421,12.4837628 7.94244604,12.2611565 C8.01399961,12.982401 8.09449738,13.721454 8.29126969,14.42489 C8.42543263,14.8968154 8.7027027,15.2975068 9.02469376,15.6625812 C9.18568929,15.8406662 9.26618705,15.8584748 9.25724285,16.0899853 C9.24829866,16.7845171 9.26618705,17.5324743 9.08730313,18.2091976 C8.90841921,18.8859208 7.41473848,19.1708569 6.81547735,19.2955164 C5.20552207,19.6249738 3.72078553,19.7763461 2.37915613,20.7736225 C0.813921836,21.9222711 0,23.712026 0,25.6442489 L22.3515458,25.6442489 L24.8648649,25.6442489 C24.8648649,23.0174942 23.272798,20.7023884 20.7684231,19.8386759 C19.7666731,19.49141 21.7791172,20.1859418 20.7684231,19.8386759 L20.7684231,19.8386759 Z M2.69220299,22.4031008 C3.19307797,21.8777498 3.82811589,21.4147287 4.51681898,21.1565053 C5.45595956,20.8003352 6.52031888,20.8181437 7.49523624,20.5688246 C8.30021388,20.3640268 9.30196383,20.0434737 9.92805755,19.4646973 C10.5004861,18.9304421 10.5630955,18.1112508 10.6167606,17.3721978 C10.6614816,16.7489001 10.6525374,16.1345066 10.6525374,15.5112089 C10.6525374,15.0749005 10.1427183,14.8255814 9.89228077,14.4783155 C9.48979195,13.9351561 9.47190356,13.1248691 9.39140579,12.4748586 C9.35562901,12.1899225 9.34668481,11.8248481 9.10519152,11.6289545 C8.83686564,11.4152525 8.64009333,11.2994972 8.50593039,10.9611356 C8.32704647,10.4981144 8.2644371,9.99947622 8.12132996,9.51864655 C8.031888,9.2069977 8.34493486,8.91315734 8.47015361,8.654934 C8.7027027,8.18300859 8.30021388,7.45285984 8.21971612,6.96312592 C7.96927863,5.50282841 7.97822283,3.90896711 9.03363795,2.7514142 C11.1534124,0.418499895 16.0101108,1.1575529 16.7077581,4.43431804 C16.9224188,5.45830714 16.7882559,6.65147706 16.5020416,7.6487534 C16.3768229,8.07615755 16.2337157,8.38780641 16.4841532,8.80630631 C16.8598094,9.41179552 16.6988139,9.80358265 16.51993,10.4803059 C16.3768229,11.0412738 16.1979389,11.2905929 15.7686175,11.6378588 C15.4108497,11.9227949 15.4645149,12.6351351 15.4019055,13.0447308 C15.3303519,13.543369 15.285631,14.0687199 14.9815283,14.4872198 C14.8652537,14.6474963 14.2302158,15.1461345 14.2302158,15.3153153 C14.2302158,16.2947832 14.1854948,17.2920595 14.3554346,18.2626231 C14.5879837,19.6427823 15.7507291,19.9722397 16.9134746,20.4441651 C18.0941085,20.898282 19.4625705,20.7291012 20.6074276,21.2900691 C21.7880614,21.8688456 22.9239743,22.9284517 23.2638538,24.2373769 L1.98561151,24.2373769 L1.60995528,24.2373769 C1.779895,23.4983239 2.19132802,22.937356 2.69220299,22.4031008 C3.51506903,21.5393882 2.16449543,22.9640687 2.69220299,22.4031008 L2.69220299,22.4031008 Z"></path>
                        </g>
                        <path d="M10.3118406,18.9189189 C10.9557557,18.6036036 11.6548635,18.5315315 12.3631702,18.4594595 C12.6207362,18.4324324 12.7403204,18.2612613 12.5471459,18.018018 C12.1791944,17.5585586 10.9097618,17.4684685 10.3762321,17.2612613 C10.0450758,17.1351351 9.95308789,17.018018 9.92549153,16.6576577 C9.91629274,16.4954955 9.82430487,15.7747748 9.95308789,15.6576577 C10.0450758,15.5675676 10.6245994,15.6036036 10.7533824,15.5855856 C11.2777133,15.5225225 11.8112429,15.4144144 12.3079774,15.2252252 C12.5195496,15.1441441 12.7219229,15.045045 12.9058986,14.9189189 C13.1266695,14.7567568 12.7403204,14.3603604 12.6391338,14.1441441 C12.326375,13.4684685 12.1883932,12.7297297 12.1423993,11.990991 C12.0504114,10.5405405 12.2803811,9.08108108 12.0044175,7.63963964 C11.590472,5.43243243 9.85190123,4.32432432 7.63499348,4.32432432 C6.26437417,4.32432432 4.91215243,4.78378378 4.14865308,5.95495495 C3.30236465,7.24324324 3.34835859,8.84684685 3.39435252,10.3153153 C3.42194889,11.1531532 3.45874404,12 3.3391598,12.8378378 C3.28396708,13.1981982 3.20117799,13.5495495 3.07239497,13.8918919 C2.97120831,14.1531532 2.45607622,14.8018018 2.65844954,14.9369369 C3.42194889,15.4684685 4.70977911,15.6486486 5.62965784,15.5765766 C5.65725421,16.018018 5.74004329,16.5855856 5.57446512,17 C5.31689908,17.6486486 3.39435252,17.8198198 2.81482892,18.009009 C1.19584235,18.5405405 0,19.8648649 0,21.6216216 L5.04093546,21.6216216 L7.31303593,21.6216216 C7.43262016,21.6216216 7.89255953,20.7837838 8.02134255,20.6486486 C8.66525766,19.9459459 9.45635337,19.3423423 10.3118406,18.9189189 C11.1397315,18.5135135 8.96881764,19.5855856 10.3118406,18.9189189 L10.3118406,18.9189189 Z M6.51274143,20.1801802 L2.01453442,20.1801802 C2.66764832,19.1171171 4.30503247,19.1891892 5.38129059,18.8108108 C6.37475962,18.4594595 7.00947594,17.8648649 7.1106626,16.8288288 C7.11986139,16.7117117 7.12906018,14.1981982 7.02787352,14.1981982 C6.22757902,14.1711712 5.39048937,14.1891892 4.59019488,14.0720721 C5.2249112,12.0630631 4.61779124,9.99099099 4.95814637,7.96396396 C5.20651363,6.4954955 6.16318751,5.68468468 7.69018621,5.68468468 C9.15279339,5.68468468 10.2382503,6.35135135 10.5510091,7.79279279 C10.9925509,9.88288288 10.3670333,12.018018 11.0477436,14.0900901 C10.5418103,14.2162162 10.0082806,14.2342342 9.48394973,14.2522523 C9.22638369,14.2612613 8.95961886,14.2702703 8.70205281,14.2792793 C8.53647464,14.2882883 8.59166736,14.5675676 8.58246858,14.7027027 C8.4904807,15.6846847 8.12252921,17.2342342 8.92282371,18.027027 C8.03974012,18.5675676 7.08306624,19.3153153 6.51274143,20.1801802 L6.51274143,20.1801802 Z" id="Shape"></path>
                        <path d="M32.5955614,21.6216216 L40,21.6216216 C40,19.8666922 38.7905468,18.5347459 37.1656326,18.0127669 C36.4178028,17.7787763 34.9775379,17.7067792 34.4420548,17.0768045 C34.1743133,16.7618172 34.3220328,15.9608494 34.3497302,15.5828646 C34.7559587,15.6188632 35.1991171,15.5558657 35.6145782,15.5018679 C35.9931093,15.4478701 36.362408,15.375873 36.7224742,15.249878 C36.8886586,15.1868806 37.054843,15.1238831 37.211795,15.0338867 C37.5718612,14.8268951 37.4056768,14.7908965 37.2210274,14.4849088 C36.2146885,12.8379751 36.6670794,10.7500591 36.6209171,8.94113194 C36.5839872,7.43819242 36.1777586,5.7912587 34.7744237,4.94529275 C33.5095757,4.18032353 31.6353849,4.15332462 30.2782122,4.69330289 C26.3636462,6.22324132 28.6717629,11.2810378 27.3330552,14.1789211 C27.1022436,14.6649016 26.7698747,14.8358947 27.3515202,15.1238831 C27.6746565,15.2858766 28.0254903,15.3938723 28.376324,15.474869 C28.9118071,15.6008639 29.4657551,15.672861 30.0197031,15.6908603 C30.1120278,15.6908603 30.0474005,16.8248147 30.0197031,16.94181 C29.918146,17.3827922 28.930272,17.5087871 28.5609733,17.6077832 C28.1824422,17.7067792 27.5546344,17.7337781 27.3699851,18.1207625 C27.0930111,18.6967393 28.2839993,18.5527451 28.5794383,18.606743 C29.5303824,18.7777361 30.3705369,19.2907154 31.1091342,19.8756919 C31.6538498,20.3076745 32.3924472,20.9196499 32.5955614,21.6216216 L32.5955614,21.6216216 Z M31.0537394,18.0127669 C31.8661965,17.2207987 31.4876654,15.6818607 31.3953407,14.6919005 C31.3399459,14.1249233 31.2106914,14.2689175 30.629046,14.2509182 C30.0750979,14.232919 29.4472902,14.2599179 28.9210396,14.0889248 C29.5857772,12.0820055 29.0410616,10.0210885 29.3826629,7.97817069 C29.641172,6.43923262 30.7213706,5.68326305 32.29089,5.68326305 C33.7126899,5.68326305 34.6913315,6.37623516 34.9867704,7.75317975 C35.4391613,9.83209608 34.7467263,11.9830095 35.4022314,14.0529262 C34.6174717,14.1699215 33.8050146,14.1429226 33.0110225,14.1699215 C32.8171406,14.1789211 32.8356056,16.4288306 32.8540705,16.6268226 C32.9186978,17.6797803 33.417251,18.3187545 34.4420548,18.7237382 C35.5591834,19.1647205 37.3041196,19.0477252 37.9873222,20.1546807 L35.4206964,20.1546807 L33.8604094,20.1546807 C33.2049043,20.1636803 33.0387199,19.6057028 32.5586316,19.1827198 C32.0877758,18.7597368 31.598455,18.3457535 31.0537394,18.0127669 Z" id="Shape"></path>
                    </g>
                </g>
            </g>
        </g>
    </g>
</svg>